<mxfile host="app.diagrams.net" modified="2024-05-07T13:59:38.461Z" agent="Mozilla/5.0 (Macintosh; Intel Mac OS X 10_15_7) AppleWebKit/537.36 (KHTML, like Gecko) Chrome/124.0.0.0 Safari/537.36" version="24.3.1" etag="F_9-8k76QmJ4chsTV-1d" type="github">
  <diagram name="Page-1" id="WrSWp7s1HvibZCOtKpfH">
    <mxGraphModel>
      <root>
        <mxCell id="0" />
        <mxCell id="1" parent="0" />
      </root>
    </mxGraphModel>
  </diagram>
</mxfile>
